<svg width="25" height="24" viewBox="0 0 25 24" fill="none" xmlns="http://www.w3.org/2000/svg">
<path fill-rule="evenodd" clip-rule="evenodd" d="M20.3649 17.2C20.2357 17.0799 20.1376 16.9553 20.1044 16.84C19.9739 16.383 20.146 15.0548 20.4048 14.6401C20.6628 14.2239 20.377 12.975 20.2926 12.7683C20.2058 12.5604 20.1767 12.2906 19.8805 12.3724C19.5826 12.4558 18.9132 12.4247 18.3078 12.3002C17.7008 12.1768 17.1723 11.5921 17.0514 10.9328C16.916 10.1937 16.916 9.47567 17.0888 9.02547C17.282 8.5194 17.7577 8.32783 18.1932 8.08917C18.3938 7.97981 19.3644 7.82496 19.3279 7.358C19.1023 6.92776 17.0418 7.41707 16.9592 6.74856C16.8756 6.07886 16.8461 5.74281 17.1075 5.20401C17.3817 4.64207 17.0664 4.7171 16.9907 4.03583C16.9804 3.93884 17.1952 3.6882 17.2122 3.6C17.9231 4.0043 18.5908 4.48762 19.1899 5.06313C21.0667 6.8667 22.1 9.26454 22.1 11.8152C22.1 13.7669 21.4905 15.6255 20.3649 17.2ZM15.9437 16.8971C15.534 17.5476 15.6325 18.0268 14.6978 18.5241C14.1772 18.8014 13.8068 18.88 13.5314 19.6248C13.2548 20.368 12.7962 20.3418 11.6513 20.9456C10.5047 21.5509 10.0493 20.9456 9.95589 20.4813C9.86289 20.017 10.1455 18.9203 10.1455 18.9203C10.1455 18.9203 10.2575 18.5927 9.44521 18.2227C7.39098 17.2872 9.16344 14.0029 9.16344 14.0029C8.69926 13.4596 7.52053 12.394 5.87484 12.045C4.30148 11.7121 3.8528 10.7887 3.3 9.867C3.70457 8.16055 4.55464 6.59235 5.80967 5.31877C7.60479 3.49786 9.99086 2.4 12.5315 2.4C12.5315 2.4 13.3883 2.4 14.1971 2.6124C13.4575 3.42653 12.6301 4.24952 12.0153 4.47643C10.9085 4.88752 10.3954 5.56099 10.3907 6.27839C10.3883 6.64999 11.1577 7.32345 11.1577 8.17547C11.1577 9.62356 10.095 9.65702 9.97099 9.04682C9.69121 7.66281 8.62097 8.0203 7.33931 8.15894C6.05567 8.29879 5.27793 9.81017 6.10216 10.4147C6.92799 11.0193 6.88547 10.2237 7.203 9.99677C7.51894 9.76946 7.74229 9.67959 7.98233 9.99677C8.22038 10.314 8.73662 10.4865 8.68694 11.1374C8.64363 11.7879 8.50453 12.3448 9.37685 12.3448C10.248 12.3448 10.2782 12.5391 10.831 12.8176C11.3782 13.0965 11.8965 13.0441 12.3531 13.1376C12.8117 13.2299 13.4126 14.1279 13.4126 14.1279C14.7125 14.5539 15.1401 14.728 15.499 15.0907C15.8567 15.4534 16.3582 16.2462 15.9437 16.8971ZM12.4986 0H12.4954H12.4922C7.73149 0 3.63019 2.7812 1.69038 6.8C0.930136 8.3748 0.5 10.1344 0.5 12C0.4992 18.6264 5.8653 24 12.4938 24H12.497H12.5002C19.1263 24 24.5008 18.6264 24.5 12.0016C24.5008 5.314 19.0467 0 12.4986 0Z" fill="#FCFCFC"/>
</svg>
